M48
; DRILL file {KiCad (6.0.0-0)} date 
; FORMAT={-:-/ absolute / metric / decimal}
; #@! TF.CreationDate,2025-11-10T11:15:45+02:00
; #@! TF.GenerationSoftware,Kicad,Pcbnew,(6.0.0-0)
; #@! TF.FileFunction,Plated,1,2,PTH
FMAT,2
METRIC
; #@! TA.AperFunction,Plated,PTH,ViaDrill
T1C0.400
; #@! TA.AperFunction,Plated,PTH,ComponentDrill
T2C0.750
; #@! TA.AperFunction,Plated,PTH,ComponentDrill
T3C0.900
; #@! TA.AperFunction,Plated,PTH,ViaDrill
T4C1.000
%
G90
G05
T1
X174.244Y-134.874
X178.054Y-144.018
T2
X193.188Y-129.794
X193.188Y-131.064
X193.188Y-132.334
X203.348Y-129.032
X203.348Y-130.302
X203.348Y-131.572
X220.853Y-129.032
X220.853Y-130.302
X220.853Y-131.572
X228.981Y-128.778
X228.981Y-130.048
X228.981Y-131.318
X241.448Y-128.778
X241.448Y-130.048
X241.448Y-131.318
T3
X203.454Y-119.38
X205.994Y-119.38
X218.186Y-119.38
X220.726Y-119.38
X228.854Y-119.38
X231.394Y-119.38
X241.554Y-119.38
X244.094Y-119.38
T4
X169.672Y-111.506
X169.672Y-111.506
X169.926Y-142.748
T0
M30
