%TF.GenerationSoftware,KiCad,Pcbnew,(6.0.0-0)*%
%TF.CreationDate,2025-11-10T11:15:49+02:00*%
%TF.ProjectId,Lab3,4c616233-2e6b-4696-9361-645f70636258,rev?*%
%TF.SameCoordinates,Original*%
%TF.FileFunction,Copper,L2,Bot*%
%TF.FilePolarity,Positive*%
%FSLAX46Y46*%
G04 Gerber Fmt 4.6, Leading zero omitted, Abs format (unit mm)*
G04 Created by KiCad (PCBNEW (6.0.0-0)) date 2025-11-10 11:15:49*
%MOMM*%
%LPD*%
G01*
G04 APERTURE LIST*
%TA.AperFunction,ComponentPad*%
%ADD10R,1.800000X1.800000*%
%TD*%
%TA.AperFunction,ComponentPad*%
%ADD11C,1.800000*%
%TD*%
%TA.AperFunction,ComponentPad*%
%ADD12R,1.500000X1.050000*%
%TD*%
%TA.AperFunction,ComponentPad*%
%ADD13O,1.500000X1.050000*%
%TD*%
%TA.AperFunction,ViaPad*%
%ADD14C,0.800000*%
%TD*%
%TA.AperFunction,ViaPad*%
%ADD15C,2.000000*%
%TD*%
%TA.AperFunction,Conductor*%
%ADD16C,0.250000*%
%TD*%
G04 APERTURE END LIST*
D10*
%TO.P,D2,1,K*%
%TO.N,Net-(D2-Pad1)*%
X220726000Y-119380000D03*
D11*
%TO.P,D2,2,A*%
%TO.N,+9V*%
X218186000Y-119380000D03*
%TD*%
D10*
%TO.P,D4,1,K*%
%TO.N,Net-(D4-Pad1)*%
X241554000Y-119380000D03*
D11*
%TO.P,D4,2,A*%
%TO.N,+9V*%
X244094000Y-119380000D03*
%TD*%
D10*
%TO.P,D1,1,K*%
%TO.N,Net-(D1-Pad1)*%
X203454000Y-119380000D03*
D11*
%TO.P,D1,2,A*%
%TO.N,+9V*%
X205994000Y-119380000D03*
%TD*%
D12*
%TO.P,Q5,1,C*%
%TO.N,Net-(D4-Pad1)*%
X241448000Y-128778000D03*
D13*
%TO.P,Q5,2,B*%
%TO.N,Net-(Q1-Pad1)*%
X241448000Y-130048000D03*
%TO.P,Q5,3,E*%
%TO.N,Net-(Q5-Pad3)*%
X241448000Y-131318000D03*
%TD*%
D10*
%TO.P,D3,1,K*%
%TO.N,Net-(D3-Pad1)*%
X228854000Y-119380000D03*
D11*
%TO.P,D3,2,A*%
%TO.N,+9V*%
X231394000Y-119380000D03*
%TD*%
D12*
%TO.P,Q1,1,C*%
%TO.N,Net-(Q1-Pad1)*%
X193188000Y-129794000D03*
D13*
%TO.P,Q1,2,B*%
%TO.N,Net-(C1-Pad2)*%
X193188000Y-131064000D03*
%TO.P,Q1,3,E*%
%TO.N,Earth*%
X193188000Y-132334000D03*
%TD*%
D12*
%TO.P,Q4,1,C*%
%TO.N,Net-(D3-Pad1)*%
X228981000Y-128778000D03*
D13*
%TO.P,Q4,2,B*%
%TO.N,Net-(Q1-Pad1)*%
X228981000Y-130048000D03*
%TO.P,Q4,3,E*%
%TO.N,Net-(Q4-Pad3)*%
X228981000Y-131318000D03*
%TD*%
D12*
%TO.P,Q2,1,C*%
%TO.N,Net-(D1-Pad1)*%
X203348000Y-129032000D03*
D13*
%TO.P,Q2,2,B*%
%TO.N,Net-(Q1-Pad1)*%
X203348000Y-130302000D03*
%TO.P,Q2,3,E*%
%TO.N,Net-(Q2-Pad3)*%
X203348000Y-131572000D03*
%TD*%
D12*
%TO.P,Q3,1,C*%
%TO.N,Net-(D2-Pad1)*%
X220853000Y-129032000D03*
D13*
%TO.P,Q3,2,B*%
%TO.N,Net-(Q1-Pad1)*%
X220853000Y-130302000D03*
%TO.P,Q3,3,E*%
%TO.N,Net-(Q3-Pad3)*%
X220853000Y-131572000D03*
%TD*%
D14*
%TO.N,Net-(C1-Pad1)*%
X174244000Y-134874000D03*
X178054000Y-144018000D03*
D15*
%TO.N,+9V*%
X169672000Y-111506000D03*
X169672000Y-111506000D03*
%TO.N,Earth*%
X169926000Y-142748000D03*
%TD*%
D16*
%TO.N,Net-(C1-Pad1)*%
X178054000Y-144018000D02*
X174244000Y-140208000D01*
X174244000Y-140208000D02*
X174244000Y-134874000D01*
X178054000Y-144018000D02*
X178054000Y-144272000D01*
%TD*%
%TA.AperFunction,Conductor*%
%TO.N,Earth*%
G36*
X248354121Y-107208002D02*
G01*
X248400614Y-107261658D01*
X248412000Y-107314000D01*
X248412000Y-154306000D01*
X248391998Y-154374121D01*
X248338342Y-154420614D01*
X248286000Y-154432000D01*
X155574000Y-154432000D01*
X155505879Y-154411998D01*
X155459386Y-154358342D01*
X155448000Y-154306000D01*
X155448000Y-134874000D01*
X173330496Y-134874000D01*
X173350458Y-135063928D01*
X173409473Y-135245556D01*
X173504960Y-135410944D01*
X173578137Y-135492215D01*
X173608853Y-135556221D01*
X173610500Y-135576524D01*
X173610500Y-140129233D01*
X173609973Y-140140416D01*
X173608298Y-140147909D01*
X173608547Y-140155835D01*
X173608547Y-140155836D01*
X173610438Y-140215986D01*
X173610500Y-140219945D01*
X173610500Y-140247856D01*
X173610997Y-140251790D01*
X173610997Y-140251791D01*
X173611005Y-140251856D01*
X173611938Y-140263693D01*
X173613327Y-140307889D01*
X173618978Y-140327339D01*
X173622987Y-140346700D01*
X173625526Y-140366797D01*
X173628445Y-140374168D01*
X173628445Y-140374170D01*
X173641804Y-140407912D01*
X173645649Y-140419142D01*
X173657982Y-140461593D01*
X173662015Y-140468412D01*
X173662017Y-140468417D01*
X173668293Y-140479028D01*
X173676988Y-140496776D01*
X173684448Y-140515617D01*
X173689110Y-140522033D01*
X173689110Y-140522034D01*
X173710436Y-140551387D01*
X173716952Y-140561307D01*
X173739458Y-140599362D01*
X173753779Y-140613683D01*
X173766619Y-140628716D01*
X173778528Y-140645107D01*
X173784634Y-140650158D01*
X173812605Y-140673298D01*
X173821384Y-140681288D01*
X177106878Y-143966782D01*
X177140904Y-144029094D01*
X177143092Y-144042703D01*
X177160458Y-144207928D01*
X177219473Y-144389556D01*
X177314960Y-144554944D01*
X177442747Y-144696866D01*
X177597248Y-144809118D01*
X177603276Y-144811802D01*
X177603278Y-144811803D01*
X177765681Y-144884109D01*
X177771712Y-144886794D01*
X177865112Y-144906647D01*
X177952056Y-144925128D01*
X177952061Y-144925128D01*
X177958513Y-144926500D01*
X178149487Y-144926500D01*
X178155939Y-144925128D01*
X178155944Y-144925128D01*
X178242888Y-144906647D01*
X178336288Y-144886794D01*
X178342319Y-144884109D01*
X178504722Y-144811803D01*
X178504724Y-144811802D01*
X178510752Y-144809118D01*
X178665253Y-144696866D01*
X178793040Y-144554944D01*
X178888527Y-144389556D01*
X178947542Y-144207928D01*
X178967504Y-144018000D01*
X178947542Y-143828072D01*
X178888527Y-143646444D01*
X178793040Y-143481056D01*
X178665253Y-143339134D01*
X178510752Y-143226882D01*
X178504724Y-143224198D01*
X178504722Y-143224197D01*
X178342319Y-143151891D01*
X178342318Y-143151891D01*
X178336288Y-143149206D01*
X178242887Y-143129353D01*
X178155944Y-143110872D01*
X178155939Y-143110872D01*
X178149487Y-143109500D01*
X178093594Y-143109500D01*
X178025473Y-143089498D01*
X178004499Y-143072595D01*
X174914405Y-139982500D01*
X174880379Y-139920188D01*
X174877500Y-139893405D01*
X174877500Y-135576524D01*
X174897502Y-135508403D01*
X174909858Y-135492221D01*
X174983040Y-135410944D01*
X175078527Y-135245556D01*
X175137542Y-135063928D01*
X175157504Y-134874000D01*
X175137542Y-134684072D01*
X175078527Y-134502444D01*
X174983040Y-134337056D01*
X174855253Y-134195134D01*
X174700752Y-134082882D01*
X174694724Y-134080198D01*
X174694722Y-134080197D01*
X174532319Y-134007891D01*
X174532318Y-134007891D01*
X174526288Y-134005206D01*
X174432888Y-133985353D01*
X174345944Y-133966872D01*
X174345939Y-133966872D01*
X174339487Y-133965500D01*
X174148513Y-133965500D01*
X174142061Y-133966872D01*
X174142056Y-133966872D01*
X174055112Y-133985353D01*
X173961712Y-134005206D01*
X173955682Y-134007891D01*
X173955681Y-134007891D01*
X173793278Y-134080197D01*
X173793276Y-134080198D01*
X173787248Y-134082882D01*
X173632747Y-134195134D01*
X173504960Y-134337056D01*
X173409473Y-134502444D01*
X173350458Y-134684072D01*
X173330496Y-134874000D01*
X155448000Y-134874000D01*
X155448000Y-132599768D01*
X191964363Y-132599768D01*
X191998846Y-132716932D01*
X192003439Y-132728300D01*
X192091586Y-132896911D01*
X192098302Y-132907173D01*
X192217515Y-133055443D01*
X192226103Y-133064213D01*
X192371838Y-133186499D01*
X192381969Y-133193437D01*
X192548692Y-133285094D01*
X192559962Y-133289924D01*
X192741315Y-133347452D01*
X192753309Y-133350002D01*
X192901350Y-133366607D01*
X192908374Y-133367000D01*
X192915885Y-133367000D01*
X192931124Y-133362525D01*
X192932329Y-133361135D01*
X192934000Y-133353452D01*
X192934000Y-133348885D01*
X193442000Y-133348885D01*
X193446475Y-133364124D01*
X193447865Y-133365329D01*
X193455548Y-133367000D01*
X193460890Y-133367000D01*
X193467035Y-133366700D01*
X193608481Y-133352830D01*
X193620519Y-133350447D01*
X193802651Y-133295458D01*
X193813993Y-133290783D01*
X193981977Y-133201465D01*
X193992193Y-133194678D01*
X194139634Y-133074428D01*
X194148338Y-133065784D01*
X194269610Y-132919191D01*
X194276470Y-132909020D01*
X194366962Y-132741658D01*
X194371714Y-132730353D01*
X194410422Y-132605308D01*
X194410628Y-132591205D01*
X194403873Y-132588000D01*
X193460115Y-132588000D01*
X193444876Y-132592475D01*
X193443671Y-132593865D01*
X193442000Y-132601548D01*
X193442000Y-133348885D01*
X192934000Y-133348885D01*
X192934000Y-132606115D01*
X192929525Y-132590876D01*
X192928135Y-132589671D01*
X192920452Y-132588000D01*
X191979014Y-132588000D01*
X191965483Y-132591973D01*
X191964363Y-132599768D01*
X155448000Y-132599768D01*
X155448000Y-131056750D01*
X191924524Y-131056750D01*
X191942894Y-131258596D01*
X192000119Y-131453029D01*
X192002972Y-131458486D01*
X192002973Y-131458489D01*
X192091162Y-131627181D01*
X192091165Y-131627185D01*
X192094019Y-131632645D01*
X192094221Y-131632897D01*
X192114201Y-131698912D01*
X192099041Y-131759885D01*
X192009038Y-131926342D01*
X192004286Y-131937647D01*
X191965578Y-132062692D01*
X191965372Y-132076795D01*
X191972127Y-132080000D01*
X192741758Y-132080000D01*
X192755803Y-132080785D01*
X192904817Y-132097500D01*
X193464004Y-132097500D01*
X193614713Y-132082723D01*
X193617002Y-132082032D01*
X193637724Y-132080000D01*
X194396986Y-132080000D01*
X194410517Y-132076027D01*
X194411637Y-132068232D01*
X194377154Y-131951068D01*
X194372561Y-131939700D01*
X194284416Y-131771093D01*
X194282403Y-131768017D01*
X194281846Y-131766178D01*
X194281560Y-131765630D01*
X194281664Y-131765576D01*
X194261839Y-131700064D01*
X194276999Y-131639094D01*
X194309357Y-131579250D01*
X194317197Y-131564750D01*
X202084524Y-131564750D01*
X202102894Y-131766596D01*
X202104632Y-131772502D01*
X202104633Y-131772506D01*
X202140185Y-131893301D01*
X202160119Y-131961029D01*
X202162972Y-131966486D01*
X202162973Y-131966489D01*
X202167127Y-131974435D01*
X202254019Y-132140645D01*
X202257879Y-132145445D01*
X202257879Y-132145446D01*
X202263729Y-132152722D01*
X202381019Y-132298601D01*
X202536281Y-132428881D01*
X202541673Y-132431845D01*
X202541677Y-132431848D01*
X202708494Y-132523556D01*
X202713891Y-132526523D01*
X202907084Y-132587807D01*
X202913201Y-132588493D01*
X202913205Y-132588494D01*
X202987348Y-132596810D01*
X203064817Y-132605500D01*
X203624004Y-132605500D01*
X203774713Y-132590723D01*
X203968742Y-132532142D01*
X204147698Y-132436990D01*
X204304763Y-132308890D01*
X204330200Y-132278142D01*
X204430027Y-132157472D01*
X204430029Y-132157469D01*
X204433956Y-132152722D01*
X204530356Y-131974435D01*
X204560323Y-131877628D01*
X204588468Y-131786707D01*
X204588469Y-131786704D01*
X204590290Y-131780820D01*
X204611476Y-131579250D01*
X204610156Y-131564750D01*
X219589524Y-131564750D01*
X219607894Y-131766596D01*
X219609632Y-131772502D01*
X219609633Y-131772506D01*
X219645185Y-131893301D01*
X219665119Y-131961029D01*
X219667972Y-131966486D01*
X219667973Y-131966489D01*
X219672127Y-131974435D01*
X219759019Y-132140645D01*
X219762879Y-132145445D01*
X219762879Y-132145446D01*
X219768729Y-132152722D01*
X219886019Y-132298601D01*
X220041281Y-132428881D01*
X220046673Y-132431845D01*
X220046677Y-132431848D01*
X220213494Y-132523556D01*
X220218891Y-132526523D01*
X220412084Y-132587807D01*
X220418201Y-132588493D01*
X220418205Y-132588494D01*
X220492348Y-132596810D01*
X220569817Y-132605500D01*
X221129004Y-132605500D01*
X221279713Y-132590723D01*
X221473742Y-132532142D01*
X221652698Y-132436990D01*
X221809763Y-132308890D01*
X221835200Y-132278142D01*
X221935027Y-132157472D01*
X221935029Y-132157469D01*
X221938956Y-132152722D01*
X222035356Y-131974435D01*
X222065323Y-131877628D01*
X222093468Y-131786707D01*
X222093469Y-131786704D01*
X222095290Y-131780820D01*
X222116476Y-131579250D01*
X222098106Y-131377404D01*
X222078489Y-131310750D01*
X227717524Y-131310750D01*
X227735894Y-131512596D01*
X227737632Y-131518502D01*
X227737633Y-131518506D01*
X227774781Y-131644722D01*
X227793119Y-131707029D01*
X227795972Y-131712486D01*
X227795973Y-131712489D01*
X227827349Y-131772506D01*
X227887019Y-131886645D01*
X227890879Y-131891445D01*
X227890879Y-131891446D01*
X227896729Y-131898722D01*
X228014019Y-132044601D01*
X228169281Y-132174881D01*
X228174673Y-132177845D01*
X228174677Y-132177848D01*
X228341494Y-132269556D01*
X228346891Y-132272523D01*
X228540084Y-132333807D01*
X228546201Y-132334493D01*
X228546205Y-132334494D01*
X228620348Y-132342810D01*
X228697817Y-132351500D01*
X229257004Y-132351500D01*
X229407713Y-132336723D01*
X229601742Y-132278142D01*
X229780698Y-132182990D01*
X229937763Y-132054890D01*
X229963200Y-132024142D01*
X230063027Y-131903472D01*
X230063029Y-131903469D01*
X230066956Y-131898722D01*
X230163356Y-131720435D01*
X230223290Y-131526820D01*
X230239846Y-131369306D01*
X230243832Y-131331378D01*
X230243832Y-131331377D01*
X230244476Y-131325250D01*
X230243156Y-131310750D01*
X240184524Y-131310750D01*
X240202894Y-131512596D01*
X240204632Y-131518502D01*
X240204633Y-131518506D01*
X240241781Y-131644722D01*
X240260119Y-131707029D01*
X240262972Y-131712486D01*
X240262973Y-131712489D01*
X240294349Y-131772506D01*
X240354019Y-131886645D01*
X240357879Y-131891445D01*
X240357879Y-131891446D01*
X240363729Y-131898722D01*
X240481019Y-132044601D01*
X240636281Y-132174881D01*
X240641673Y-132177845D01*
X240641677Y-132177848D01*
X240808494Y-132269556D01*
X240813891Y-132272523D01*
X241007084Y-132333807D01*
X241013201Y-132334493D01*
X241013205Y-132334494D01*
X241087348Y-132342810D01*
X241164817Y-132351500D01*
X241724004Y-132351500D01*
X241874713Y-132336723D01*
X242068742Y-132278142D01*
X242247698Y-132182990D01*
X242404763Y-132054890D01*
X242430200Y-132024142D01*
X242530027Y-131903472D01*
X242530029Y-131903469D01*
X242533956Y-131898722D01*
X242630356Y-131720435D01*
X242690290Y-131526820D01*
X242706846Y-131369306D01*
X242710832Y-131331378D01*
X242710832Y-131331377D01*
X242711476Y-131325250D01*
X242693106Y-131123404D01*
X242659381Y-131008815D01*
X242649749Y-130976091D01*
X242635881Y-130928971D01*
X242631951Y-130921452D01*
X242544835Y-130754815D01*
X242541981Y-130749355D01*
X242542016Y-130749337D01*
X242522111Y-130683559D01*
X242537271Y-130622591D01*
X242572576Y-130557296D01*
X242630356Y-130450435D01*
X242690290Y-130256820D01*
X242706846Y-130099306D01*
X242710832Y-130061378D01*
X242710832Y-130061377D01*
X242711476Y-130055250D01*
X242698504Y-129912718D01*
X242693665Y-129859543D01*
X242693664Y-129859540D01*
X242693106Y-129853404D01*
X242687188Y-129833294D01*
X242637620Y-129664879D01*
X242637619Y-129664877D01*
X242635881Y-129658971D01*
X242636740Y-129658718D01*
X242630286Y-129593338D01*
X242643452Y-129556594D01*
X242648615Y-129549705D01*
X242651768Y-129541296D01*
X242696971Y-129420715D01*
X242699745Y-129413316D01*
X242706500Y-129351134D01*
X242706500Y-128204866D01*
X242699745Y-128142684D01*
X242648615Y-128006295D01*
X242561261Y-127889739D01*
X242444705Y-127802385D01*
X242308316Y-127751255D01*
X242246134Y-127744500D01*
X240649866Y-127744500D01*
X240587684Y-127751255D01*
X240451295Y-127802385D01*
X240334739Y-127889739D01*
X240247385Y-128006295D01*
X240196255Y-128142684D01*
X240189500Y-128204866D01*
X240189500Y-129351134D01*
X240196255Y-129413316D01*
X240199029Y-129420715D01*
X240244232Y-129541296D01*
X240244234Y-129541299D01*
X240247385Y-129549705D01*
X240252773Y-129556894D01*
X240252906Y-129557137D01*
X240268076Y-129626494D01*
X240262752Y-129654907D01*
X240205710Y-129839180D01*
X240205066Y-129845305D01*
X240205066Y-129845306D01*
X240197333Y-129918879D01*
X240184524Y-130040750D01*
X240202894Y-130242596D01*
X240260119Y-130437029D01*
X240262972Y-130442486D01*
X240262973Y-130442489D01*
X240294349Y-130502506D01*
X240353923Y-130616460D01*
X240353923Y-130616462D01*
X240354019Y-130616645D01*
X240353984Y-130616663D01*
X240373889Y-130682441D01*
X240358729Y-130743409D01*
X240265644Y-130915565D01*
X240205710Y-131109180D01*
X240205066Y-131115305D01*
X240205066Y-131115306D01*
X240188511Y-131272820D01*
X240184524Y-131310750D01*
X230243156Y-131310750D01*
X230226106Y-131123404D01*
X230192381Y-131008815D01*
X230182749Y-130976091D01*
X230168881Y-130928971D01*
X230164951Y-130921452D01*
X230077835Y-130754815D01*
X230074981Y-130749355D01*
X230075016Y-130749337D01*
X230055111Y-130683559D01*
X230070271Y-130622591D01*
X230105576Y-130557296D01*
X230163356Y-130450435D01*
X230223290Y-130256820D01*
X230239846Y-130099306D01*
X230243832Y-130061378D01*
X230243832Y-130061377D01*
X230244476Y-130055250D01*
X230231504Y-129912718D01*
X230226665Y-129859543D01*
X230226664Y-129859540D01*
X230226106Y-129853404D01*
X230220188Y-129833294D01*
X230170620Y-129664879D01*
X230170619Y-129664877D01*
X230168881Y-129658971D01*
X230169740Y-129658718D01*
X230163286Y-129593338D01*
X230176452Y-129556594D01*
X230181615Y-129549705D01*
X230184768Y-129541296D01*
X230229971Y-129420715D01*
X230232745Y-129413316D01*
X230239500Y-129351134D01*
X230239500Y-128204866D01*
X230232745Y-128142684D01*
X230181615Y-128006295D01*
X230094261Y-127889739D01*
X229977705Y-127802385D01*
X229841316Y-127751255D01*
X229779134Y-127744500D01*
X228182866Y-127744500D01*
X228120684Y-127751255D01*
X227984295Y-127802385D01*
X227867739Y-127889739D01*
X227780385Y-128006295D01*
X227729255Y-128142684D01*
X227722500Y-128204866D01*
X227722500Y-129351134D01*
X227729255Y-129413316D01*
X227732029Y-129420715D01*
X227777232Y-129541296D01*
X227777234Y-129541299D01*
X227780385Y-129549705D01*
X227785773Y-129556894D01*
X227785906Y-129557137D01*
X227801076Y-129626494D01*
X227795752Y-129654907D01*
X227738710Y-129839180D01*
X227738066Y-129845305D01*
X227738066Y-129845306D01*
X227730333Y-129918879D01*
X227717524Y-130040750D01*
X227735894Y-130242596D01*
X227793119Y-130437029D01*
X227795972Y-130442486D01*
X227795973Y-130442489D01*
X227827349Y-130502506D01*
X227886923Y-130616460D01*
X227886923Y-130616462D01*
X227887019Y-130616645D01*
X227886984Y-130616663D01*
X227906889Y-130682441D01*
X227891729Y-130743409D01*
X227798644Y-130915565D01*
X227738710Y-131109180D01*
X227738066Y-131115305D01*
X227738066Y-131115306D01*
X227721511Y-131272820D01*
X227717524Y-131310750D01*
X222078489Y-131310750D01*
X222040881Y-131182971D01*
X222036951Y-131175452D01*
X221949835Y-131008815D01*
X221946981Y-131003355D01*
X221947016Y-131003337D01*
X221927111Y-130937559D01*
X221942271Y-130876591D01*
X221953848Y-130855180D01*
X222035356Y-130704435D01*
X222095290Y-130510820D01*
X222103857Y-130429316D01*
X222115832Y-130315378D01*
X222115832Y-130315377D01*
X222116476Y-130309250D01*
X222098106Y-130107404D01*
X222092188Y-130087294D01*
X222042620Y-129918879D01*
X222042619Y-129918877D01*
X222040881Y-129912971D01*
X222041740Y-129912718D01*
X222035286Y-129847338D01*
X222048452Y-129810594D01*
X222053615Y-129803705D01*
X222056768Y-129795296D01*
X222101971Y-129674715D01*
X222104745Y-129667316D01*
X222111500Y-129605134D01*
X222111500Y-128458866D01*
X222104745Y-128396684D01*
X222053615Y-128260295D01*
X221966261Y-128143739D01*
X221849705Y-128056385D01*
X221713316Y-128005255D01*
X221651134Y-127998500D01*
X220054866Y-127998500D01*
X219992684Y-128005255D01*
X219856295Y-128056385D01*
X219739739Y-128143739D01*
X219652385Y-128260295D01*
X219601255Y-128396684D01*
X219594500Y-128458866D01*
X219594500Y-129605134D01*
X219601255Y-129667316D01*
X219604029Y-129674715D01*
X219649232Y-129795296D01*
X219649234Y-129795299D01*
X219652385Y-129803705D01*
X219657773Y-129810894D01*
X219657906Y-129811137D01*
X219673076Y-129880494D01*
X219667752Y-129908907D01*
X219610710Y-130093180D01*
X219610066Y-130099305D01*
X219610066Y-130099306D01*
X219593511Y-130256820D01*
X219589524Y-130294750D01*
X219607894Y-130496596D01*
X219609632Y-130502502D01*
X219609633Y-130502506D01*
X219646781Y-130628722D01*
X219665119Y-130691029D01*
X219667972Y-130696486D01*
X219667973Y-130696489D01*
X219672127Y-130704435D01*
X219758923Y-130870460D01*
X219758923Y-130870462D01*
X219759019Y-130870645D01*
X219758984Y-130870663D01*
X219778889Y-130936441D01*
X219763729Y-130997409D01*
X219670644Y-131169565D01*
X219610710Y-131363180D01*
X219610066Y-131369305D01*
X219610066Y-131369306D01*
X219593511Y-131526820D01*
X219589524Y-131564750D01*
X204610156Y-131564750D01*
X204593106Y-131377404D01*
X204535881Y-131182971D01*
X204531951Y-131175452D01*
X204444835Y-131008815D01*
X204441981Y-131003355D01*
X204442016Y-131003337D01*
X204422111Y-130937559D01*
X204437271Y-130876591D01*
X204448848Y-130855180D01*
X204530356Y-130704435D01*
X204590290Y-130510820D01*
X204598857Y-130429316D01*
X204610832Y-130315378D01*
X204610832Y-130315377D01*
X204611476Y-130309250D01*
X204593106Y-130107404D01*
X204587188Y-130087294D01*
X204537620Y-129918879D01*
X204537619Y-129918877D01*
X204535881Y-129912971D01*
X204536740Y-129912718D01*
X204530286Y-129847338D01*
X204543452Y-129810594D01*
X204548615Y-129803705D01*
X204551768Y-129795296D01*
X204596971Y-129674715D01*
X204599745Y-129667316D01*
X204606500Y-129605134D01*
X204606500Y-128458866D01*
X204599745Y-128396684D01*
X204548615Y-128260295D01*
X204461261Y-128143739D01*
X204344705Y-128056385D01*
X204208316Y-128005255D01*
X204146134Y-127998500D01*
X202549866Y-127998500D01*
X202487684Y-128005255D01*
X202351295Y-128056385D01*
X202234739Y-128143739D01*
X202147385Y-128260295D01*
X202096255Y-128396684D01*
X202089500Y-128458866D01*
X202089500Y-129605134D01*
X202096255Y-129667316D01*
X202099029Y-129674715D01*
X202144232Y-129795296D01*
X202144234Y-129795299D01*
X202147385Y-129803705D01*
X202152773Y-129810894D01*
X202152906Y-129811137D01*
X202168076Y-129880494D01*
X202162752Y-129908907D01*
X202105710Y-130093180D01*
X202105066Y-130099305D01*
X202105066Y-130099306D01*
X202088511Y-130256820D01*
X202084524Y-130294750D01*
X202102894Y-130496596D01*
X202104632Y-130502502D01*
X202104633Y-130502506D01*
X202141781Y-130628722D01*
X202160119Y-130691029D01*
X202162972Y-130696486D01*
X202162973Y-130696489D01*
X202167127Y-130704435D01*
X202253923Y-130870460D01*
X202253923Y-130870462D01*
X202254019Y-130870645D01*
X202253984Y-130870663D01*
X202273889Y-130936441D01*
X202258729Y-130997409D01*
X202165644Y-131169565D01*
X202105710Y-131363180D01*
X202105066Y-131369305D01*
X202105066Y-131369306D01*
X202088511Y-131526820D01*
X202084524Y-131564750D01*
X194317197Y-131564750D01*
X194370356Y-131466435D01*
X194430290Y-131272820D01*
X194440308Y-131177511D01*
X194450832Y-131077378D01*
X194450832Y-131077377D01*
X194451476Y-131071250D01*
X194439309Y-130937559D01*
X194433665Y-130875543D01*
X194433664Y-130875540D01*
X194433106Y-130869404D01*
X194427188Y-130849294D01*
X194377620Y-130680879D01*
X194377619Y-130680877D01*
X194375881Y-130674971D01*
X194376740Y-130674718D01*
X194370286Y-130609338D01*
X194383452Y-130572594D01*
X194388615Y-130565705D01*
X194391768Y-130557296D01*
X194434035Y-130444548D01*
X194439745Y-130429316D01*
X194446500Y-130367134D01*
X194446500Y-129220866D01*
X194439745Y-129158684D01*
X194388615Y-129022295D01*
X194301261Y-128905739D01*
X194184705Y-128818385D01*
X194048316Y-128767255D01*
X193986134Y-128760500D01*
X192389866Y-128760500D01*
X192327684Y-128767255D01*
X192191295Y-128818385D01*
X192074739Y-128905739D01*
X191987385Y-129022295D01*
X191936255Y-129158684D01*
X191929500Y-129220866D01*
X191929500Y-130367134D01*
X191936255Y-130429316D01*
X191941965Y-130444548D01*
X191984232Y-130557296D01*
X191984234Y-130557299D01*
X191987385Y-130565705D01*
X191992773Y-130572894D01*
X191992906Y-130573137D01*
X192008076Y-130642494D01*
X192002752Y-130670907D01*
X191945710Y-130855180D01*
X191945066Y-130861305D01*
X191945066Y-130861306D01*
X191931405Y-130991278D01*
X191924524Y-131056750D01*
X155448000Y-131056750D01*
X155448000Y-120328134D01*
X202045500Y-120328134D01*
X202052255Y-120390316D01*
X202103385Y-120526705D01*
X202190739Y-120643261D01*
X202307295Y-120730615D01*
X202443684Y-120781745D01*
X202505866Y-120788500D01*
X204402134Y-120788500D01*
X204464316Y-120781745D01*
X204600705Y-120730615D01*
X204717261Y-120643261D01*
X204804615Y-120526705D01*
X204829180Y-120461178D01*
X204871822Y-120404414D01*
X204938383Y-120379714D01*
X205007732Y-120394921D01*
X205027647Y-120408464D01*
X205092724Y-120462492D01*
X205183349Y-120537730D01*
X205383322Y-120654584D01*
X205599694Y-120737209D01*
X205604760Y-120738240D01*
X205604761Y-120738240D01*
X205657846Y-120749040D01*
X205826656Y-120783385D01*
X205956089Y-120788131D01*
X206052949Y-120791683D01*
X206052953Y-120791683D01*
X206058113Y-120791872D01*
X206063233Y-120791216D01*
X206063235Y-120791216D01*
X206137166Y-120781745D01*
X206287847Y-120762442D01*
X206292795Y-120760957D01*
X206292802Y-120760956D01*
X206504747Y-120697369D01*
X206509690Y-120695886D01*
X206590236Y-120656427D01*
X206713049Y-120596262D01*
X206713052Y-120596260D01*
X206717684Y-120593991D01*
X206906243Y-120459494D01*
X207070303Y-120296005D01*
X207205458Y-120107917D01*
X207252641Y-120012450D01*
X207305784Y-119904922D01*
X207305785Y-119904920D01*
X207308078Y-119900280D01*
X207375408Y-119678671D01*
X207405640Y-119449041D01*
X207407327Y-119380000D01*
X207404488Y-119345469D01*
X216773095Y-119345469D01*
X216773392Y-119350622D01*
X216773392Y-119350625D01*
X216779067Y-119449041D01*
X216786427Y-119576697D01*
X216787564Y-119581743D01*
X216787565Y-119581749D01*
X216819741Y-119724523D01*
X216837346Y-119802642D01*
X216839288Y-119807424D01*
X216839289Y-119807428D01*
X216922540Y-120012450D01*
X216924484Y-120017237D01*
X217045501Y-120214719D01*
X217197147Y-120389784D01*
X217375349Y-120537730D01*
X217575322Y-120654584D01*
X217791694Y-120737209D01*
X217796760Y-120738240D01*
X217796761Y-120738240D01*
X217849846Y-120749040D01*
X218018656Y-120783385D01*
X218148089Y-120788131D01*
X218244949Y-120791683D01*
X218244953Y-120791683D01*
X218250113Y-120791872D01*
X218255233Y-120791216D01*
X218255235Y-120791216D01*
X218329166Y-120781745D01*
X218479847Y-120762442D01*
X218484795Y-120760957D01*
X218484802Y-120760956D01*
X218696747Y-120697369D01*
X218701690Y-120695886D01*
X218782236Y-120656427D01*
X218905049Y-120596262D01*
X218905052Y-120596260D01*
X218909684Y-120593991D01*
X219098243Y-120459494D01*
X219143309Y-120414585D01*
X219205681Y-120380669D01*
X219276487Y-120385857D01*
X219333249Y-120428503D01*
X219350231Y-120459607D01*
X219375385Y-120526705D01*
X219462739Y-120643261D01*
X219579295Y-120730615D01*
X219715684Y-120781745D01*
X219777866Y-120788500D01*
X221674134Y-120788500D01*
X221736316Y-120781745D01*
X221872705Y-120730615D01*
X221989261Y-120643261D01*
X222076615Y-120526705D01*
X222127745Y-120390316D01*
X222134500Y-120328134D01*
X227445500Y-120328134D01*
X227452255Y-120390316D01*
X227503385Y-120526705D01*
X227590739Y-120643261D01*
X227707295Y-120730615D01*
X227843684Y-120781745D01*
X227905866Y-120788500D01*
X229802134Y-120788500D01*
X229864316Y-120781745D01*
X230000705Y-120730615D01*
X230117261Y-120643261D01*
X230204615Y-120526705D01*
X230229180Y-120461178D01*
X230271822Y-120404414D01*
X230338383Y-120379714D01*
X230407732Y-120394921D01*
X230427647Y-120408464D01*
X230492724Y-120462492D01*
X230583349Y-120537730D01*
X230783322Y-120654584D01*
X230999694Y-120737209D01*
X231004760Y-120738240D01*
X231004761Y-120738240D01*
X231057846Y-120749040D01*
X231226656Y-120783385D01*
X231356089Y-120788131D01*
X231452949Y-120791683D01*
X231452953Y-120791683D01*
X231458113Y-120791872D01*
X231463233Y-120791216D01*
X231463235Y-120791216D01*
X231537166Y-120781745D01*
X231687847Y-120762442D01*
X231692795Y-120760957D01*
X231692802Y-120760956D01*
X231904747Y-120697369D01*
X231909690Y-120695886D01*
X231990236Y-120656427D01*
X232113049Y-120596262D01*
X232113052Y-120596260D01*
X232117684Y-120593991D01*
X232306243Y-120459494D01*
X232438062Y-120328134D01*
X240145500Y-120328134D01*
X240152255Y-120390316D01*
X240203385Y-120526705D01*
X240290739Y-120643261D01*
X240407295Y-120730615D01*
X240543684Y-120781745D01*
X240605866Y-120788500D01*
X242502134Y-120788500D01*
X242564316Y-120781745D01*
X242700705Y-120730615D01*
X242817261Y-120643261D01*
X242904615Y-120526705D01*
X242929180Y-120461178D01*
X242971822Y-120404414D01*
X243038383Y-120379714D01*
X243107732Y-120394921D01*
X243127647Y-120408464D01*
X243192724Y-120462492D01*
X243283349Y-120537730D01*
X243483322Y-120654584D01*
X243699694Y-120737209D01*
X243704760Y-120738240D01*
X243704761Y-120738240D01*
X243757846Y-120749040D01*
X243926656Y-120783385D01*
X244056089Y-120788131D01*
X244152949Y-120791683D01*
X244152953Y-120791683D01*
X244158113Y-120791872D01*
X244163233Y-120791216D01*
X244163235Y-120791216D01*
X244237166Y-120781745D01*
X244387847Y-120762442D01*
X244392795Y-120760957D01*
X244392802Y-120760956D01*
X244604747Y-120697369D01*
X244609690Y-120695886D01*
X244690236Y-120656427D01*
X244813049Y-120596262D01*
X244813052Y-120596260D01*
X244817684Y-120593991D01*
X245006243Y-120459494D01*
X245170303Y-120296005D01*
X245305458Y-120107917D01*
X245352641Y-120012450D01*
X245405784Y-119904922D01*
X245405785Y-119904920D01*
X245408078Y-119900280D01*
X245475408Y-119678671D01*
X245505640Y-119449041D01*
X245507327Y-119380000D01*
X245501032Y-119303434D01*
X245488773Y-119154318D01*
X245488772Y-119154312D01*
X245488349Y-119149167D01*
X245431925Y-118924533D01*
X245429866Y-118919797D01*
X245341630Y-118716868D01*
X245341628Y-118716865D01*
X245339570Y-118712131D01*
X245213764Y-118517665D01*
X245057887Y-118346358D01*
X245053836Y-118343159D01*
X245053832Y-118343155D01*
X244880177Y-118206011D01*
X244880172Y-118206008D01*
X244876123Y-118202810D01*
X244871607Y-118200317D01*
X244871604Y-118200315D01*
X244677879Y-118093373D01*
X244677875Y-118093371D01*
X244673355Y-118090876D01*
X244668486Y-118089152D01*
X244668482Y-118089150D01*
X244459903Y-118015288D01*
X244459899Y-118015287D01*
X244455028Y-118013562D01*
X244449935Y-118012655D01*
X244449932Y-118012654D01*
X244232095Y-117973851D01*
X244232089Y-117973850D01*
X244227006Y-117972945D01*
X244154096Y-117972054D01*
X244000581Y-117970179D01*
X244000579Y-117970179D01*
X243995411Y-117970116D01*
X243766464Y-118005150D01*
X243546314Y-118077106D01*
X243541726Y-118079494D01*
X243541722Y-118079496D01*
X243345461Y-118181663D01*
X243340872Y-118184052D01*
X243336739Y-118187155D01*
X243336736Y-118187157D01*
X243188319Y-118298592D01*
X243155655Y-118323117D01*
X243138170Y-118341414D01*
X243076646Y-118376844D01*
X243005733Y-118373387D01*
X242947947Y-118332141D01*
X242929094Y-118298592D01*
X242907768Y-118241705D01*
X242907767Y-118241703D01*
X242904615Y-118233295D01*
X242817261Y-118116739D01*
X242700705Y-118029385D01*
X242564316Y-117978255D01*
X242502134Y-117971500D01*
X240605866Y-117971500D01*
X240543684Y-117978255D01*
X240407295Y-118029385D01*
X240290739Y-118116739D01*
X240203385Y-118233295D01*
X240152255Y-118369684D01*
X240145500Y-118431866D01*
X240145500Y-120328134D01*
X232438062Y-120328134D01*
X232470303Y-120296005D01*
X232605458Y-120107917D01*
X232652641Y-120012450D01*
X232705784Y-119904922D01*
X232705785Y-119904920D01*
X232708078Y-119900280D01*
X232775408Y-119678671D01*
X232805640Y-119449041D01*
X232807327Y-119380000D01*
X232801032Y-119303434D01*
X232788773Y-119154318D01*
X232788772Y-119154312D01*
X232788349Y-119149167D01*
X232731925Y-118924533D01*
X232729866Y-118919797D01*
X232641630Y-118716868D01*
X232641628Y-118716865D01*
X232639570Y-118712131D01*
X232513764Y-118517665D01*
X232357887Y-118346358D01*
X232353836Y-118343159D01*
X232353832Y-118343155D01*
X232180177Y-118206011D01*
X232180172Y-118206008D01*
X232176123Y-118202810D01*
X232171607Y-118200317D01*
X232171604Y-118200315D01*
X231977879Y-118093373D01*
X231977875Y-118093371D01*
X231973355Y-118090876D01*
X231968486Y-118089152D01*
X231968482Y-118089150D01*
X231759903Y-118015288D01*
X231759899Y-118015287D01*
X231755028Y-118013562D01*
X231749935Y-118012655D01*
X231749932Y-118012654D01*
X231532095Y-117973851D01*
X231532089Y-117973850D01*
X231527006Y-117972945D01*
X231454096Y-117972054D01*
X231300581Y-117970179D01*
X231300579Y-117970179D01*
X231295411Y-117970116D01*
X231066464Y-118005150D01*
X230846314Y-118077106D01*
X230841726Y-118079494D01*
X230841722Y-118079496D01*
X230645461Y-118181663D01*
X230640872Y-118184052D01*
X230636739Y-118187155D01*
X230636736Y-118187157D01*
X230488319Y-118298592D01*
X230455655Y-118323117D01*
X230438170Y-118341414D01*
X230376646Y-118376844D01*
X230305733Y-118373387D01*
X230247947Y-118332141D01*
X230229094Y-118298592D01*
X230207768Y-118241705D01*
X230207767Y-118241703D01*
X230204615Y-118233295D01*
X230117261Y-118116739D01*
X230000705Y-118029385D01*
X229864316Y-117978255D01*
X229802134Y-117971500D01*
X227905866Y-117971500D01*
X227843684Y-117978255D01*
X227707295Y-118029385D01*
X227590739Y-118116739D01*
X227503385Y-118233295D01*
X227452255Y-118369684D01*
X227445500Y-118431866D01*
X227445500Y-120328134D01*
X222134500Y-120328134D01*
X222134500Y-118431866D01*
X222127745Y-118369684D01*
X222076615Y-118233295D01*
X221989261Y-118116739D01*
X221872705Y-118029385D01*
X221736316Y-117978255D01*
X221674134Y-117971500D01*
X219777866Y-117971500D01*
X219715684Y-117978255D01*
X219579295Y-118029385D01*
X219462739Y-118116739D01*
X219375385Y-118233295D01*
X219372233Y-118241703D01*
X219372232Y-118241705D01*
X219351538Y-118296906D01*
X219308897Y-118353671D01*
X219242335Y-118378371D01*
X219172986Y-118363164D01*
X219150167Y-118346666D01*
X219149887Y-118346358D01*
X219017373Y-118241705D01*
X218972177Y-118206011D01*
X218972172Y-118206008D01*
X218968123Y-118202810D01*
X218963607Y-118200317D01*
X218963604Y-118200315D01*
X218769879Y-118093373D01*
X218769875Y-118093371D01*
X218765355Y-118090876D01*
X218760486Y-118089152D01*
X218760482Y-118089150D01*
X218551903Y-118015288D01*
X218551899Y-118015287D01*
X218547028Y-118013562D01*
X218541935Y-118012655D01*
X218541932Y-118012654D01*
X218324095Y-117973851D01*
X218324089Y-117973850D01*
X218319006Y-117972945D01*
X218246096Y-117972054D01*
X218092581Y-117970179D01*
X218092579Y-117970179D01*
X218087411Y-117970116D01*
X217858464Y-118005150D01*
X217638314Y-118077106D01*
X217633726Y-118079494D01*
X217633722Y-118079496D01*
X217437461Y-118181663D01*
X217432872Y-118184052D01*
X217428739Y-118187155D01*
X217428736Y-118187157D01*
X217280319Y-118298592D01*
X217247655Y-118323117D01*
X217087639Y-118490564D01*
X217084725Y-118494836D01*
X217084724Y-118494837D01*
X217069152Y-118517665D01*
X216957119Y-118681899D01*
X216859602Y-118891981D01*
X216797707Y-119115169D01*
X216773095Y-119345469D01*
X207404488Y-119345469D01*
X207401032Y-119303434D01*
X207388773Y-119154318D01*
X207388772Y-119154312D01*
X207388349Y-119149167D01*
X207331925Y-118924533D01*
X207329866Y-118919797D01*
X207241630Y-118716868D01*
X207241628Y-118716865D01*
X207239570Y-118712131D01*
X207113764Y-118517665D01*
X206957887Y-118346358D01*
X206953836Y-118343159D01*
X206953832Y-118343155D01*
X206780177Y-118206011D01*
X206780172Y-118206008D01*
X206776123Y-118202810D01*
X206771607Y-118200317D01*
X206771604Y-118200315D01*
X206577879Y-118093373D01*
X206577875Y-118093371D01*
X206573355Y-118090876D01*
X206568486Y-118089152D01*
X206568482Y-118089150D01*
X206359903Y-118015288D01*
X206359899Y-118015287D01*
X206355028Y-118013562D01*
X206349935Y-118012655D01*
X206349932Y-118012654D01*
X206132095Y-117973851D01*
X206132089Y-117973850D01*
X206127006Y-117972945D01*
X206054096Y-117972054D01*
X205900581Y-117970179D01*
X205900579Y-117970179D01*
X205895411Y-117970116D01*
X205666464Y-118005150D01*
X205446314Y-118077106D01*
X205441726Y-118079494D01*
X205441722Y-118079496D01*
X205245461Y-118181663D01*
X205240872Y-118184052D01*
X205236739Y-118187155D01*
X205236736Y-118187157D01*
X205088319Y-118298592D01*
X205055655Y-118323117D01*
X205038170Y-118341414D01*
X204976646Y-118376844D01*
X204905733Y-118373387D01*
X204847947Y-118332141D01*
X204829094Y-118298592D01*
X204807768Y-118241705D01*
X204807767Y-118241703D01*
X204804615Y-118233295D01*
X204717261Y-118116739D01*
X204600705Y-118029385D01*
X204464316Y-117978255D01*
X204402134Y-117971500D01*
X202505866Y-117971500D01*
X202443684Y-117978255D01*
X202307295Y-118029385D01*
X202190739Y-118116739D01*
X202103385Y-118233295D01*
X202052255Y-118369684D01*
X202045500Y-118431866D01*
X202045500Y-120328134D01*
X155448000Y-120328134D01*
X155448000Y-111506000D01*
X168158835Y-111506000D01*
X168177465Y-111742711D01*
X168232895Y-111973594D01*
X168323760Y-112192963D01*
X168326346Y-112197183D01*
X168445241Y-112391202D01*
X168445245Y-112391208D01*
X168447824Y-112395416D01*
X168602031Y-112575969D01*
X168782584Y-112730176D01*
X168786792Y-112732755D01*
X168786798Y-112732759D01*
X168980817Y-112851654D01*
X168985037Y-112854240D01*
X168989607Y-112856133D01*
X168989611Y-112856135D01*
X169199833Y-112943211D01*
X169204406Y-112945105D01*
X169284609Y-112964360D01*
X169430476Y-112999380D01*
X169430482Y-112999381D01*
X169435289Y-113000535D01*
X169672000Y-113019165D01*
X169908711Y-113000535D01*
X169913518Y-112999381D01*
X169913524Y-112999380D01*
X170059391Y-112964360D01*
X170139594Y-112945105D01*
X170144167Y-112943211D01*
X170354389Y-112856135D01*
X170354393Y-112856133D01*
X170358963Y-112854240D01*
X170363183Y-112851654D01*
X170557202Y-112732759D01*
X170557208Y-112732755D01*
X170561416Y-112730176D01*
X170741969Y-112575969D01*
X170896176Y-112395416D01*
X170898755Y-112391208D01*
X170898759Y-112391202D01*
X171017654Y-112197183D01*
X171020240Y-112192963D01*
X171111105Y-111973594D01*
X171166535Y-111742711D01*
X171185165Y-111506000D01*
X171166535Y-111269289D01*
X171111105Y-111038406D01*
X171020240Y-110819037D01*
X171017654Y-110814817D01*
X170898759Y-110620798D01*
X170898755Y-110620792D01*
X170896176Y-110616584D01*
X170741969Y-110436031D01*
X170561416Y-110281824D01*
X170557208Y-110279245D01*
X170557202Y-110279241D01*
X170363183Y-110160346D01*
X170358963Y-110157760D01*
X170354393Y-110155867D01*
X170354389Y-110155865D01*
X170144167Y-110068789D01*
X170144165Y-110068788D01*
X170139594Y-110066895D01*
X170059391Y-110047640D01*
X169913524Y-110012620D01*
X169913518Y-110012619D01*
X169908711Y-110011465D01*
X169672000Y-109992835D01*
X169435289Y-110011465D01*
X169430482Y-110012619D01*
X169430476Y-110012620D01*
X169284609Y-110047640D01*
X169204406Y-110066895D01*
X169199835Y-110068788D01*
X169199833Y-110068789D01*
X168989611Y-110155865D01*
X168989607Y-110155867D01*
X168985037Y-110157760D01*
X168980817Y-110160346D01*
X168786798Y-110279241D01*
X168786792Y-110279245D01*
X168782584Y-110281824D01*
X168602031Y-110436031D01*
X168447824Y-110616584D01*
X168445245Y-110620792D01*
X168445241Y-110620798D01*
X168326346Y-110814817D01*
X168323760Y-110819037D01*
X168232895Y-111038406D01*
X168177465Y-111269289D01*
X168158835Y-111506000D01*
X155448000Y-111506000D01*
X155448000Y-107314000D01*
X155468002Y-107245879D01*
X155521658Y-107199386D01*
X155574000Y-107188000D01*
X248286000Y-107188000D01*
X248354121Y-107208002D01*
G37*
%TD.AperFunction*%
%TD*%
M02*
