%TF.GenerationSoftware,KiCad,Pcbnew,(6.0.0-0)*%
%TF.CreationDate,2025-11-10T11:15:49+02:00*%
%TF.ProjectId,Lab3,4c616233-2e6b-4696-9361-645f70636258,rev?*%
%TF.SameCoordinates,Original*%
%TF.FileFunction,Legend,Top*%
%TF.FilePolarity,Positive*%
%FSLAX46Y46*%
G04 Gerber Fmt 4.6, Leading zero omitted, Abs format (unit mm)*
G04 Created by KiCad (PCBNEW (6.0.0-0)) date 2025-11-10 11:15:49*
%MOMM*%
%LPD*%
G01*
G04 APERTURE LIST*
%ADD10C,0.150000*%
%ADD11C,0.120000*%
G04 APERTURE END LIST*
D10*
%TO.C,D2*%
X218717904Y-125392380D02*
X218717904Y-124392380D01*
X218956000Y-124392380D01*
X219098857Y-124440000D01*
X219194095Y-124535238D01*
X219241714Y-124630476D01*
X219289333Y-124820952D01*
X219289333Y-124963809D01*
X219241714Y-125154285D01*
X219194095Y-125249523D01*
X219098857Y-125344761D01*
X218956000Y-125392380D01*
X218717904Y-125392380D01*
X219670285Y-124487619D02*
X219717904Y-124440000D01*
X219813142Y-124392380D01*
X220051238Y-124392380D01*
X220146476Y-124440000D01*
X220194095Y-124487619D01*
X220241714Y-124582857D01*
X220241714Y-124678095D01*
X220194095Y-124820952D01*
X219622666Y-125392380D01*
X220241714Y-125392380D01*
%TO.C,D4*%
X242085904Y-114272380D02*
X242085904Y-113272380D01*
X242324000Y-113272380D01*
X242466857Y-113320000D01*
X242562095Y-113415238D01*
X242609714Y-113510476D01*
X242657333Y-113700952D01*
X242657333Y-113843809D01*
X242609714Y-114034285D01*
X242562095Y-114129523D01*
X242466857Y-114224761D01*
X242324000Y-114272380D01*
X242085904Y-114272380D01*
X243514476Y-113605714D02*
X243514476Y-114272380D01*
X243276380Y-113224761D02*
X243038285Y-113939047D01*
X243657333Y-113939047D01*
%TO.C,R6*%
X233110380Y-145200666D02*
X232634190Y-145534000D01*
X233110380Y-145772095D02*
X232110380Y-145772095D01*
X232110380Y-145391142D01*
X232158000Y-145295904D01*
X232205619Y-145248285D01*
X232300857Y-145200666D01*
X232443714Y-145200666D01*
X232538952Y-145248285D01*
X232586571Y-145295904D01*
X232634190Y-145391142D01*
X232634190Y-145772095D01*
X232110380Y-144343523D02*
X232110380Y-144534000D01*
X232158000Y-144629238D01*
X232205619Y-144676857D01*
X232348476Y-144772095D01*
X232538952Y-144819714D01*
X232919904Y-144819714D01*
X233015142Y-144772095D01*
X233062761Y-144724476D01*
X233110380Y-144629238D01*
X233110380Y-144438761D01*
X233062761Y-144343523D01*
X233015142Y-144295904D01*
X232919904Y-144248285D01*
X232681809Y-144248285D01*
X232586571Y-144295904D01*
X232538952Y-144343523D01*
X232491333Y-144438761D01*
X232491333Y-144629238D01*
X232538952Y-144724476D01*
X232586571Y-144772095D01*
X232681809Y-144819714D01*
%TO.C,D1*%
X203985904Y-114272380D02*
X203985904Y-113272380D01*
X204224000Y-113272380D01*
X204366857Y-113320000D01*
X204462095Y-113415238D01*
X204509714Y-113510476D01*
X204557333Y-113700952D01*
X204557333Y-113843809D01*
X204509714Y-114034285D01*
X204462095Y-114129523D01*
X204366857Y-114224761D01*
X204224000Y-114272380D01*
X203985904Y-114272380D01*
X205509714Y-114272380D02*
X204938285Y-114272380D01*
X205224000Y-114272380D02*
X205224000Y-113272380D01*
X205128761Y-113415238D01*
X205033523Y-113510476D01*
X204938285Y-113558095D01*
%TO.C,Q5*%
X245555619Y-130143238D02*
X245508000Y-130238476D01*
X245412761Y-130333714D01*
X245269904Y-130476571D01*
X245222285Y-130571809D01*
X245222285Y-130667047D01*
X245460380Y-130619428D02*
X245412761Y-130714666D01*
X245317523Y-130809904D01*
X245127047Y-130857523D01*
X244793714Y-130857523D01*
X244603238Y-130809904D01*
X244508000Y-130714666D01*
X244460380Y-130619428D01*
X244460380Y-130428952D01*
X244508000Y-130333714D01*
X244603238Y-130238476D01*
X244793714Y-130190857D01*
X245127047Y-130190857D01*
X245317523Y-130238476D01*
X245412761Y-130333714D01*
X245460380Y-130428952D01*
X245460380Y-130619428D01*
X244460380Y-129286095D02*
X244460380Y-129762285D01*
X244936571Y-129809904D01*
X244888952Y-129762285D01*
X244841333Y-129667047D01*
X244841333Y-129428952D01*
X244888952Y-129333714D01*
X244936571Y-129286095D01*
X245031809Y-129238476D01*
X245269904Y-129238476D01*
X245365142Y-129286095D01*
X245412761Y-129333714D01*
X245460380Y-129428952D01*
X245460380Y-129667047D01*
X245412761Y-129762285D01*
X245365142Y-129809904D01*
%TO.C,D3*%
X229385904Y-114272380D02*
X229385904Y-113272380D01*
X229624000Y-113272380D01*
X229766857Y-113320000D01*
X229862095Y-113415238D01*
X229909714Y-113510476D01*
X229957333Y-113700952D01*
X229957333Y-113843809D01*
X229909714Y-114034285D01*
X229862095Y-114129523D01*
X229766857Y-114224761D01*
X229624000Y-114272380D01*
X229385904Y-114272380D01*
X230290666Y-113272380D02*
X230909714Y-113272380D01*
X230576380Y-113653333D01*
X230719238Y-113653333D01*
X230814476Y-113700952D01*
X230862095Y-113748571D01*
X230909714Y-113843809D01*
X230909714Y-114081904D01*
X230862095Y-114177142D01*
X230814476Y-114224761D01*
X230719238Y-114272380D01*
X230433523Y-114272380D01*
X230338285Y-114224761D01*
X230290666Y-114177142D01*
%TO.C,R4*%
X206186380Y-145139166D02*
X205710190Y-145472500D01*
X206186380Y-145710595D02*
X205186380Y-145710595D01*
X205186380Y-145329642D01*
X205234000Y-145234404D01*
X205281619Y-145186785D01*
X205376857Y-145139166D01*
X205519714Y-145139166D01*
X205614952Y-145186785D01*
X205662571Y-145234404D01*
X205710190Y-145329642D01*
X205710190Y-145710595D01*
X205519714Y-144282023D02*
X206186380Y-144282023D01*
X205138761Y-144520119D02*
X205853047Y-144758214D01*
X205853047Y-144139166D01*
%TO.C,Q1*%
X197295619Y-131159238D02*
X197248000Y-131254476D01*
X197152761Y-131349714D01*
X197009904Y-131492571D01*
X196962285Y-131587809D01*
X196962285Y-131683047D01*
X197200380Y-131635428D02*
X197152761Y-131730666D01*
X197057523Y-131825904D01*
X196867047Y-131873523D01*
X196533714Y-131873523D01*
X196343238Y-131825904D01*
X196248000Y-131730666D01*
X196200380Y-131635428D01*
X196200380Y-131444952D01*
X196248000Y-131349714D01*
X196343238Y-131254476D01*
X196533714Y-131206857D01*
X196867047Y-131206857D01*
X197057523Y-131254476D01*
X197152761Y-131349714D01*
X197200380Y-131444952D01*
X197200380Y-131635428D01*
X197200380Y-130254476D02*
X197200380Y-130825904D01*
X197200380Y-130540190D02*
X196200380Y-130540190D01*
X196343238Y-130635428D01*
X196438476Y-130730666D01*
X196486095Y-130825904D01*
%TO.C,R2*%
X188152380Y-113135166D02*
X187676190Y-113468500D01*
X188152380Y-113706595D02*
X187152380Y-113706595D01*
X187152380Y-113325642D01*
X187200000Y-113230404D01*
X187247619Y-113182785D01*
X187342857Y-113135166D01*
X187485714Y-113135166D01*
X187580952Y-113182785D01*
X187628571Y-113230404D01*
X187676190Y-113325642D01*
X187676190Y-113706595D01*
X187247619Y-112754214D02*
X187200000Y-112706595D01*
X187152380Y-112611357D01*
X187152380Y-112373261D01*
X187200000Y-112278023D01*
X187247619Y-112230404D01*
X187342857Y-112182785D01*
X187438095Y-112182785D01*
X187580952Y-112230404D01*
X188152380Y-112801833D01*
X188152380Y-112182785D01*
%TO.C,R3*%
X195772380Y-113135166D02*
X195296190Y-113468500D01*
X195772380Y-113706595D02*
X194772380Y-113706595D01*
X194772380Y-113325642D01*
X194820000Y-113230404D01*
X194867619Y-113182785D01*
X194962857Y-113135166D01*
X195105714Y-113135166D01*
X195200952Y-113182785D01*
X195248571Y-113230404D01*
X195296190Y-113325642D01*
X195296190Y-113706595D01*
X194772380Y-112801833D02*
X194772380Y-112182785D01*
X195153333Y-112516119D01*
X195153333Y-112373261D01*
X195200952Y-112278023D01*
X195248571Y-112230404D01*
X195343809Y-112182785D01*
X195581904Y-112182785D01*
X195677142Y-112230404D01*
X195724761Y-112278023D01*
X195772380Y-112373261D01*
X195772380Y-112658976D01*
X195724761Y-112754214D01*
X195677142Y-112801833D01*
%TO.C,R5*%
X222950380Y-145200666D02*
X222474190Y-145534000D01*
X222950380Y-145772095D02*
X221950380Y-145772095D01*
X221950380Y-145391142D01*
X221998000Y-145295904D01*
X222045619Y-145248285D01*
X222140857Y-145200666D01*
X222283714Y-145200666D01*
X222378952Y-145248285D01*
X222426571Y-145295904D01*
X222474190Y-145391142D01*
X222474190Y-145772095D01*
X221950380Y-144295904D02*
X221950380Y-144772095D01*
X222426571Y-144819714D01*
X222378952Y-144772095D01*
X222331333Y-144676857D01*
X222331333Y-144438761D01*
X222378952Y-144343523D01*
X222426571Y-144295904D01*
X222521809Y-144248285D01*
X222759904Y-144248285D01*
X222855142Y-144295904D01*
X222902761Y-144343523D01*
X222950380Y-144438761D01*
X222950380Y-144676857D01*
X222902761Y-144772095D01*
X222855142Y-144819714D01*
%TO.C,Q4*%
X233088619Y-130143238D02*
X233041000Y-130238476D01*
X232945761Y-130333714D01*
X232802904Y-130476571D01*
X232755285Y-130571809D01*
X232755285Y-130667047D01*
X232993380Y-130619428D02*
X232945761Y-130714666D01*
X232850523Y-130809904D01*
X232660047Y-130857523D01*
X232326714Y-130857523D01*
X232136238Y-130809904D01*
X232041000Y-130714666D01*
X231993380Y-130619428D01*
X231993380Y-130428952D01*
X232041000Y-130333714D01*
X232136238Y-130238476D01*
X232326714Y-130190857D01*
X232660047Y-130190857D01*
X232850523Y-130238476D01*
X232945761Y-130333714D01*
X232993380Y-130428952D01*
X232993380Y-130619428D01*
X232326714Y-129333714D02*
X232993380Y-129333714D01*
X231945761Y-129571809D02*
X232660047Y-129809904D01*
X232660047Y-129190857D01*
%TO.C,C1*%
X177076333Y-123787142D02*
X177028714Y-123834761D01*
X176885857Y-123882380D01*
X176790619Y-123882380D01*
X176647761Y-123834761D01*
X176552523Y-123739523D01*
X176504904Y-123644285D01*
X176457285Y-123453809D01*
X176457285Y-123310952D01*
X176504904Y-123120476D01*
X176552523Y-123025238D01*
X176647761Y-122930000D01*
X176790619Y-122882380D01*
X176885857Y-122882380D01*
X177028714Y-122930000D01*
X177076333Y-122977619D01*
X178028714Y-123882380D02*
X177457285Y-123882380D01*
X177743000Y-123882380D02*
X177743000Y-122882380D01*
X177647761Y-123025238D01*
X177552523Y-123120476D01*
X177457285Y-123168095D01*
%TO.C,MK1*%
X176744476Y-141575380D02*
X176744476Y-140575380D01*
X177077809Y-141289666D01*
X177411142Y-140575380D01*
X177411142Y-141575380D01*
X177887333Y-141575380D02*
X177887333Y-140575380D01*
X178458761Y-141575380D02*
X178030190Y-141003952D01*
X178458761Y-140575380D02*
X177887333Y-141146809D01*
X179411142Y-141575380D02*
X178839714Y-141575380D01*
X179125428Y-141575380D02*
X179125428Y-140575380D01*
X179030190Y-140718238D01*
X178934952Y-140813476D01*
X178839714Y-140861095D01*
%TO.C,R1*%
X180532380Y-113135166D02*
X180056190Y-113468500D01*
X180532380Y-113706595D02*
X179532380Y-113706595D01*
X179532380Y-113325642D01*
X179580000Y-113230404D01*
X179627619Y-113182785D01*
X179722857Y-113135166D01*
X179865714Y-113135166D01*
X179960952Y-113182785D01*
X180008571Y-113230404D01*
X180056190Y-113325642D01*
X180056190Y-113706595D01*
X180532380Y-112182785D02*
X180532380Y-112754214D01*
X180532380Y-112468500D02*
X179532380Y-112468500D01*
X179675238Y-112563738D01*
X179770476Y-112658976D01*
X179818095Y-112754214D01*
%TO.C,R7*%
X244032380Y-145200666D02*
X243556190Y-145534000D01*
X244032380Y-145772095D02*
X243032380Y-145772095D01*
X243032380Y-145391142D01*
X243080000Y-145295904D01*
X243127619Y-145248285D01*
X243222857Y-145200666D01*
X243365714Y-145200666D01*
X243460952Y-145248285D01*
X243508571Y-145295904D01*
X243556190Y-145391142D01*
X243556190Y-145772095D01*
X243032380Y-144867333D02*
X243032380Y-144200666D01*
X244032380Y-144629238D01*
%TO.C,Q2*%
X207455619Y-130397238D02*
X207408000Y-130492476D01*
X207312761Y-130587714D01*
X207169904Y-130730571D01*
X207122285Y-130825809D01*
X207122285Y-130921047D01*
X207360380Y-130873428D02*
X207312761Y-130968666D01*
X207217523Y-131063904D01*
X207027047Y-131111523D01*
X206693714Y-131111523D01*
X206503238Y-131063904D01*
X206408000Y-130968666D01*
X206360380Y-130873428D01*
X206360380Y-130682952D01*
X206408000Y-130587714D01*
X206503238Y-130492476D01*
X206693714Y-130444857D01*
X207027047Y-130444857D01*
X207217523Y-130492476D01*
X207312761Y-130587714D01*
X207360380Y-130682952D01*
X207360380Y-130873428D01*
X206455619Y-130063904D02*
X206408000Y-130016285D01*
X206360380Y-129921047D01*
X206360380Y-129682952D01*
X206408000Y-129587714D01*
X206455619Y-129540095D01*
X206550857Y-129492476D01*
X206646095Y-129492476D01*
X206788952Y-129540095D01*
X207360380Y-130111523D01*
X207360380Y-129492476D01*
%TO.C,Q3*%
X224960619Y-130397238D02*
X224913000Y-130492476D01*
X224817761Y-130587714D01*
X224674904Y-130730571D01*
X224627285Y-130825809D01*
X224627285Y-130921047D01*
X224865380Y-130873428D02*
X224817761Y-130968666D01*
X224722523Y-131063904D01*
X224532047Y-131111523D01*
X224198714Y-131111523D01*
X224008238Y-131063904D01*
X223913000Y-130968666D01*
X223865380Y-130873428D01*
X223865380Y-130682952D01*
X223913000Y-130587714D01*
X224008238Y-130492476D01*
X224198714Y-130444857D01*
X224532047Y-130444857D01*
X224722523Y-130492476D01*
X224817761Y-130587714D01*
X224865380Y-130682952D01*
X224865380Y-130873428D01*
X223865380Y-130111523D02*
X223865380Y-129492476D01*
X224246333Y-129825809D01*
X224246333Y-129682952D01*
X224293952Y-129587714D01*
X224341571Y-129540095D01*
X224436809Y-129492476D01*
X224674904Y-129492476D01*
X224770142Y-129540095D01*
X224817761Y-129587714D01*
X224865380Y-129682952D01*
X224865380Y-129968666D01*
X224817761Y-130063904D01*
X224770142Y-130111523D01*
D11*
%TO.C,D2*%
X223516000Y-121522000D02*
X223516000Y-117238000D01*
X223516000Y-117238855D02*
G75*
G03*
X214866000Y-119380486I-4060000J-2141145D01*
G01*
X214866000Y-119379514D02*
G75*
G03*
X223516000Y-121521145I4590000J-486D01*
G01*
X223456000Y-119380000D02*
G75*
G03*
X223456000Y-119380000I-4000000J0D01*
G01*
%TO.C,D4*%
X238764000Y-117238000D02*
X238764000Y-121522000D01*
X247414000Y-119380486D02*
G75*
G03*
X238764000Y-117238855I-4590000J486D01*
G01*
X238764000Y-121521145D02*
G75*
G03*
X247414000Y-119379514I4060000J2141145D01*
G01*
X246824000Y-119380000D02*
G75*
G03*
X246824000Y-119380000I-4000000J0D01*
G01*
%TO.C,R6*%
X229023000Y-144310263D02*
X229023000Y-145757737D01*
X231733000Y-144310263D02*
X231733000Y-145757737D01*
%TO.C,D1*%
X200664000Y-117238000D02*
X200664000Y-121522000D01*
X209314000Y-119380486D02*
G75*
G03*
X200664000Y-117238855I-4590000J486D01*
G01*
X200664000Y-121521145D02*
G75*
G03*
X209314000Y-119379514I4060000J2141145D01*
G01*
X208724000Y-119380000D02*
G75*
G03*
X208724000Y-119380000I-4000000J0D01*
G01*
%TO.C,Q5*%
X239598000Y-128248000D02*
X239598000Y-131848000D01*
X239609522Y-131886478D02*
G75*
G03*
X244048000Y-130048000I1838478J1838478D01*
G01*
X244048001Y-130048000D02*
G75*
G03*
X239609522Y-128209522I-2600001J0D01*
G01*
%TO.C,D3*%
X226064000Y-117238000D02*
X226064000Y-121522000D01*
X226064000Y-121521145D02*
G75*
G03*
X234714000Y-119379514I4060000J2141145D01*
G01*
X234714000Y-119380486D02*
G75*
G03*
X226064000Y-117238855I-4590000J486D01*
G01*
X234124000Y-119380000D02*
G75*
G03*
X234124000Y-119380000I-4000000J0D01*
G01*
%TO.C,R4*%
X204809000Y-144248763D02*
X204809000Y-145696237D01*
X202099000Y-144248763D02*
X202099000Y-145696237D01*
%TO.C,Q1*%
X191338000Y-129264000D02*
X191338000Y-132864000D01*
X195788001Y-131064000D02*
G75*
G03*
X191349522Y-129225522I-2600001J0D01*
G01*
X191349522Y-132902478D02*
G75*
G03*
X195788000Y-131064000I1838478J1838478D01*
G01*
%TO.C,R2*%
X184065000Y-112244763D02*
X184065000Y-113692237D01*
X186775000Y-112244763D02*
X186775000Y-113692237D01*
%TO.C,R3*%
X191685000Y-112244763D02*
X191685000Y-113692237D01*
X194395000Y-112244763D02*
X194395000Y-113692237D01*
%TO.C,R5*%
X221573000Y-144310263D02*
X221573000Y-145757737D01*
X218863000Y-144310263D02*
X218863000Y-145757737D01*
%TO.C,Q4*%
X227131000Y-128248000D02*
X227131000Y-131848000D01*
X227142522Y-131886478D02*
G75*
G03*
X231581000Y-130048000I1838478J1838478D01*
G01*
X231581001Y-130048000D02*
G75*
G03*
X227142522Y-128209522I-2600001J0D01*
G01*
%TO.C,C1*%
X176531748Y-127090000D02*
X177954252Y-127090000D01*
X176531748Y-124370000D02*
X177954252Y-124370000D01*
%TO.C,MK1*%
X180154000Y-144123000D02*
G75*
G03*
X180154000Y-144123000I-2100000J0D01*
G01*
%TO.C,R1*%
X176445000Y-112244763D02*
X176445000Y-113692237D01*
X179155000Y-112244763D02*
X179155000Y-113692237D01*
%TO.C,R7*%
X242655000Y-144310263D02*
X242655000Y-145757737D01*
X239945000Y-144310263D02*
X239945000Y-145757737D01*
%TO.C,Q2*%
X201498000Y-128502000D02*
X201498000Y-132102000D01*
X201509522Y-132140478D02*
G75*
G03*
X205948000Y-130302000I1838478J1838478D01*
G01*
X205948001Y-130302000D02*
G75*
G03*
X201509522Y-128463522I-2600001J0D01*
G01*
%TO.C,Q3*%
X219003000Y-128502000D02*
X219003000Y-132102000D01*
X223453001Y-130302000D02*
G75*
G03*
X219014522Y-128463522I-2600001J0D01*
G01*
X219014522Y-132140478D02*
G75*
G03*
X223453000Y-130302000I1838478J1838478D01*
G01*
%TD*%
M02*
