%TF.GenerationSoftware,KiCad,Pcbnew,(6.0.0-0)*%
%TF.CreationDate,2025-11-10T11:15:49+02:00*%
%TF.ProjectId,Lab3,4c616233-2e6b-4696-9361-645f70636258,rev?*%
%TF.SameCoordinates,Original*%
%TF.FileFunction,Copper,L1,Top*%
%TF.FilePolarity,Positive*%
%FSLAX46Y46*%
G04 Gerber Fmt 4.6, Leading zero omitted, Abs format (unit mm)*
G04 Created by KiCad (PCBNEW (6.0.0-0)) date 2025-11-10 11:15:49*
%MOMM*%
%LPD*%
G01*
G04 APERTURE LIST*
G04 Aperture macros list*
%AMRoundRect*
0 Rectangle with rounded corners*
0 $1 Rounding radius*
0 $2 $3 $4 $5 $6 $7 $8 $9 X,Y pos of 4 corners*
0 Add a 4 corners polygon primitive as box body*
4,1,4,$2,$3,$4,$5,$6,$7,$8,$9,$2,$3,0*
0 Add four circle primitives for the rounded corners*
1,1,$1+$1,$2,$3*
1,1,$1+$1,$4,$5*
1,1,$1+$1,$6,$7*
1,1,$1+$1,$8,$9*
0 Add four rect primitives between the rounded corners*
20,1,$1+$1,$2,$3,$4,$5,0*
20,1,$1+$1,$4,$5,$6,$7,0*
20,1,$1+$1,$6,$7,$8,$9,0*
20,1,$1+$1,$8,$9,$2,$3,0*%
%AMFreePoly0*
4,1,85,0.032093,0.369917,0.152523,0.368341,0.408529,0.326647,0.655562,0.247572,0.888192,0.132851,1.101311,-0.014995,1.290235,-0.192717,1.450816,-0.396412,1.579524,-0.621606,1.673533,-0.863350,1.730778,-1.116334,1.750000,-1.375000,1.747602,-1.466588,1.714868,-1.723894,1.644462,-1.973535,1.537930,-2.210028,1.397612,-2.428176,1.226591,-2.623188,1.028624,-2.790780,0.808060,-2.927269,
0.569744,-3.029658,0.318912,-3.095696,0.061074,-3.123934,-0.198106,-3.113751,-0.452933,-3.065370,-0.697811,-2.979855,-0.927359,-2.859084,-1.136534,-2.705710,-1.320742,-2.523103,-1.475935,-2.315274,-1.598705,-2.086789,-1.686353,-1.842667,-1.736956,-1.588271,-1.747874,-1.360970,-1.004741,-1.360970,-0.988331,-1.556393,-0.934276,-1.744906,-0.844634,-1.919330,-0.722821,-2.073020,-0.573475,-2.200123,
-0.402286,-2.295797,-0.215774,-2.356398,-0.021044,-2.379619,0.174488,-2.364573,0.363374,-2.311835,0.538420,-2.223414,0.692957,-2.102676,0.821099,-1.954222,0.917966,-1.783705,0.979868,-1.597621,1.004447,-1.403057,1.004839,-1.375000,0.985702,-1.179826,0.929020,-0.992086,0.836952,-0.818931,0.713004,-0.666956,0.561899,-0.541951,0.389391,-0.448676,0.202051,-0.390685,0.021074,-0.371662,
0.000000,-0.375000,-0.016747,-0.372348,-0.188288,-0.387959,-0.376419,-0.443330,-0.550213,-0.534187,-0.703049,-0.657070,-0.829106,-0.807299,-0.923583,-0.979152,-0.982881,-1.166082,-1.004741,-1.360970,-1.747874,-1.360970,-1.749400,-1.329190,-1.723414,-1.071116,-1.659566,-0.819717,-1.559261,-0.580517,-1.424702,-0.358770,-1.258845,-0.159348,-1.065333,0.013368,-0.848417,0.155584,-0.612863,0.264176,
-0.363845,0.336758,-0.106835,0.371736,-0.027193,0.370693,0.000000,0.375000,0.032093,0.369917,0.032093,0.369917,$1*%
G04 Aperture macros list end*
%TA.AperFunction,ComponentPad*%
%ADD10R,1.800000X1.800000*%
%TD*%
%TA.AperFunction,ComponentPad*%
%ADD11C,1.800000*%
%TD*%
%TA.AperFunction,SMDPad,CuDef*%
%ADD12RoundRect,0.250000X-1.075000X0.312500X-1.075000X-0.312500X1.075000X-0.312500X1.075000X0.312500X0*%
%TD*%
%TA.AperFunction,ComponentPad*%
%ADD13R,1.500000X1.050000*%
%TD*%
%TA.AperFunction,ComponentPad*%
%ADD14O,1.500000X1.050000*%
%TD*%
%TA.AperFunction,SMDPad,CuDef*%
%ADD15RoundRect,0.250000X-0.325000X-1.100000X0.325000X-1.100000X0.325000X1.100000X-0.325000X1.100000X0*%
%TD*%
%TA.AperFunction,SMDPad,CuDef*%
%ADD16FreePoly0,0.000000*%
%TD*%
%TA.AperFunction,SMDPad,CuDef*%
%ADD17C,1.000000*%
%TD*%
%TA.AperFunction,ViaPad*%
%ADD18C,0.800000*%
%TD*%
%TA.AperFunction,ViaPad*%
%ADD19C,2.000000*%
%TD*%
%TA.AperFunction,Conductor*%
%ADD20C,0.250000*%
%TD*%
G04 APERTURE END LIST*
D10*
%TO.P,D2,1,K*%
%TO.N,Net-(D2-Pad1)*%
X220726000Y-119380000D03*
D11*
%TO.P,D2,2,A*%
%TO.N,+9V*%
X218186000Y-119380000D03*
%TD*%
D10*
%TO.P,D4,1,K*%
%TO.N,Net-(D4-Pad1)*%
X241554000Y-119380000D03*
D11*
%TO.P,D4,2,A*%
%TO.N,+9V*%
X244094000Y-119380000D03*
%TD*%
D12*
%TO.P,R6,1*%
%TO.N,Net-(Q4-Pad3)*%
X230378000Y-143571500D03*
%TO.P,R6,2*%
%TO.N,Earth*%
X230378000Y-146496500D03*
%TD*%
D10*
%TO.P,D1,1,K*%
%TO.N,Net-(D1-Pad1)*%
X203454000Y-119380000D03*
D11*
%TO.P,D1,2,A*%
%TO.N,+9V*%
X205994000Y-119380000D03*
%TD*%
D13*
%TO.P,Q5,1,C*%
%TO.N,Net-(D4-Pad1)*%
X241448000Y-128778000D03*
D14*
%TO.P,Q5,2,B*%
%TO.N,Net-(Q1-Pad1)*%
X241448000Y-130048000D03*
%TO.P,Q5,3,E*%
%TO.N,Net-(Q5-Pad3)*%
X241448000Y-131318000D03*
%TD*%
D10*
%TO.P,D3,1,K*%
%TO.N,Net-(D3-Pad1)*%
X228854000Y-119380000D03*
D11*
%TO.P,D3,2,A*%
%TO.N,+9V*%
X231394000Y-119380000D03*
%TD*%
D12*
%TO.P,R4,1*%
%TO.N,Net-(Q2-Pad3)*%
X203454000Y-143510000D03*
%TO.P,R4,2*%
%TO.N,Earth*%
X203454000Y-146435000D03*
%TD*%
D13*
%TO.P,Q1,1,C*%
%TO.N,Net-(Q1-Pad1)*%
X193188000Y-129794000D03*
D14*
%TO.P,Q1,2,B*%
%TO.N,Net-(C1-Pad2)*%
X193188000Y-131064000D03*
%TO.P,Q1,3,E*%
%TO.N,Earth*%
X193188000Y-132334000D03*
%TD*%
D12*
%TO.P,R2,1*%
%TO.N,+9V*%
X185420000Y-111506000D03*
%TO.P,R2,2*%
%TO.N,Net-(C1-Pad2)*%
X185420000Y-114431000D03*
%TD*%
%TO.P,R3,1*%
%TO.N,+9V*%
X193040000Y-111506000D03*
%TO.P,R3,2*%
%TO.N,Net-(Q1-Pad1)*%
X193040000Y-114431000D03*
%TD*%
%TO.P,R5,1*%
%TO.N,Net-(Q3-Pad3)*%
X220218000Y-143571500D03*
%TO.P,R5,2*%
%TO.N,Earth*%
X220218000Y-146496500D03*
%TD*%
D13*
%TO.P,Q4,1,C*%
%TO.N,Net-(D3-Pad1)*%
X228981000Y-128778000D03*
D14*
%TO.P,Q4,2,B*%
%TO.N,Net-(Q1-Pad1)*%
X228981000Y-130048000D03*
%TO.P,Q4,3,E*%
%TO.N,Net-(Q4-Pad3)*%
X228981000Y-131318000D03*
%TD*%
D15*
%TO.P,C1,1*%
%TO.N,Net-(C1-Pad1)*%
X175768000Y-125730000D03*
%TO.P,C1,2*%
%TO.N,Net-(C1-Pad2)*%
X178718000Y-125730000D03*
%TD*%
D16*
%TO.P,MK1,1,-*%
%TO.N,Earth*%
X178054000Y-142748000D03*
D17*
%TO.P,MK1,2,+*%
%TO.N,Net-(C1-Pad1)*%
X178054000Y-144123000D03*
%TD*%
D12*
%TO.P,R1,1*%
%TO.N,+9V*%
X177800000Y-111506000D03*
%TO.P,R1,2*%
%TO.N,Net-(C1-Pad1)*%
X177800000Y-114431000D03*
%TD*%
%TO.P,R7,1*%
%TO.N,Net-(Q5-Pad3)*%
X241300000Y-143571500D03*
%TO.P,R7,2*%
%TO.N,Earth*%
X241300000Y-146496500D03*
%TD*%
D13*
%TO.P,Q2,1,C*%
%TO.N,Net-(D1-Pad1)*%
X203348000Y-129032000D03*
D14*
%TO.P,Q2,2,B*%
%TO.N,Net-(Q1-Pad1)*%
X203348000Y-130302000D03*
%TO.P,Q2,3,E*%
%TO.N,Net-(Q2-Pad3)*%
X203348000Y-131572000D03*
%TD*%
D13*
%TO.P,Q3,1,C*%
%TO.N,Net-(D2-Pad1)*%
X220853000Y-129032000D03*
D14*
%TO.P,Q3,2,B*%
%TO.N,Net-(Q1-Pad1)*%
X220853000Y-130302000D03*
%TO.P,Q3,3,E*%
%TO.N,Net-(Q3-Pad3)*%
X220853000Y-131572000D03*
%TD*%
D18*
%TO.N,Net-(C1-Pad1)*%
X174244000Y-134874000D03*
X178054000Y-144018000D03*
D19*
%TO.N,+9V*%
X169672000Y-111506000D03*
X169672000Y-111506000D03*
%TO.N,Earth*%
X169926000Y-142748000D03*
%TD*%
D20*
%TO.N,Net-(C1-Pad1)*%
X175768000Y-116463000D02*
X175768000Y-125730000D01*
X175768000Y-133350000D02*
X175768000Y-125730000D01*
X177800000Y-114431000D02*
X175768000Y-116463000D01*
X174244000Y-134874000D02*
X175768000Y-133350000D01*
%TO.N,Net-(D1-Pad1)*%
X203454000Y-128926000D02*
X203348000Y-129032000D01*
X203348000Y-129032000D02*
X203962000Y-129032000D01*
X203454000Y-119380000D02*
X203454000Y-128926000D01*
%TO.N,+9V*%
X177800000Y-111506000D02*
X185420000Y-111506000D01*
X218186000Y-110998000D02*
X231394000Y-110998000D01*
X218186000Y-119380000D02*
X218186000Y-110998000D01*
X169672000Y-111506000D02*
X177800000Y-111506000D01*
X206248000Y-119126000D02*
X205994000Y-119380000D01*
X244094000Y-111252000D02*
X244094000Y-119380000D01*
X231394000Y-110998000D02*
X243840000Y-110998000D01*
X185420000Y-111506000D02*
X193040000Y-111506000D01*
X243840000Y-110998000D02*
X244094000Y-111252000D01*
X231394000Y-110998000D02*
X231394000Y-119380000D01*
X193040000Y-111506000D02*
X206248000Y-111506000D01*
X205994000Y-119380000D02*
X218186000Y-119380000D01*
X206248000Y-111506000D02*
X206248000Y-119126000D01*
%TO.N,Net-(D2-Pad1)*%
X220705000Y-128884000D02*
X220853000Y-129032000D01*
X220726000Y-128905000D02*
X220853000Y-129032000D01*
X220726000Y-119380000D02*
X220726000Y-128905000D01*
%TO.N,Net-(D3-Pad1)*%
X228854000Y-128651000D02*
X228981000Y-128778000D01*
X228854000Y-119380000D02*
X228854000Y-128651000D01*
X228833000Y-128630000D02*
X228981000Y-128778000D01*
%TO.N,Net-(D4-Pad1)*%
X241554000Y-119380000D02*
X241554000Y-128672000D01*
X241554000Y-128672000D02*
X241448000Y-128778000D01*
%TO.N,Earth*%
X203454000Y-146435000D02*
X181741000Y-146435000D01*
X181741000Y-146435000D02*
X178054000Y-142748000D01*
X193188000Y-132334000D02*
X188871000Y-132334000D01*
X220156500Y-146435000D02*
X220218000Y-146496500D01*
X220218000Y-146496500D02*
X241300000Y-146496500D01*
X203454000Y-146435000D02*
X220156500Y-146435000D01*
X188871000Y-132334000D02*
X178308000Y-142897000D01*
X169926000Y-142748000D02*
X178054000Y-142748000D01*
%TO.N,Net-(C1-Pad2)*%
X185420000Y-114431000D02*
X185420000Y-121666000D01*
X181356000Y-125730000D02*
X186690000Y-131064000D01*
X178718000Y-125730000D02*
X181356000Y-125730000D01*
X182782000Y-121666000D02*
X185420000Y-121666000D01*
X178718000Y-125730000D02*
X182782000Y-121666000D01*
X186690000Y-131064000D02*
X193188000Y-131064000D01*
%TO.N,Net-(Q1-Pad1)*%
X220853000Y-130302000D02*
X221107000Y-130048000D01*
X193040000Y-114431000D02*
X193188000Y-114579000D01*
X228981000Y-130048000D02*
X241448000Y-130048000D01*
X199898000Y-130556000D02*
X203094000Y-130556000D01*
X228727000Y-130302000D02*
X228981000Y-130048000D01*
X193188000Y-129794000D02*
X199136000Y-129794000D01*
X220853000Y-130302000D02*
X228727000Y-130302000D01*
X203348000Y-130302000D02*
X220853000Y-130302000D01*
X203094000Y-130556000D02*
X203348000Y-130302000D01*
X193188000Y-114579000D02*
X193188000Y-129794000D01*
X199136000Y-129794000D02*
X199898000Y-130556000D01*
%TO.N,Net-(Q2-Pad3)*%
X203348000Y-131572000D02*
X203348000Y-143423500D01*
%TO.N,Net-(Q3-Pad3)*%
X220218000Y-143571500D02*
X220218000Y-132207000D01*
X220218000Y-132207000D02*
X220853000Y-131572000D01*
%TO.N,Net-(Q4-Pad3)*%
X230378000Y-132715000D02*
X228981000Y-131318000D01*
X230378000Y-143825500D02*
X230378000Y-132715000D01*
%TO.N,Net-(Q5-Pad3)*%
X241448000Y-143423500D02*
X241300000Y-143571500D01*
X241448000Y-131318000D02*
X241448000Y-143423500D01*
%TD*%
M02*
